<?xml version="1.0" encoding="utf-8"?>
<!-- Generator: Adobe Illustrator 23.0.1, SVG Export Plug-In . SVG Version: 6.00 Build 0)  -->
<svg version="1.1" id="Art" xmlns="http://www.w3.org/2000/svg" xmlns:xlink="http://www.w3.org/1999/xlink" x="0px" y="0px"
	 viewBox="0 0 692 320" style="enable-background:new 0 0 692 320;" xml:space="preserve">
<style type="text/css">
	.st0{fill:#00965C;}
</style>
<path id="Park" class="st0" d="M269.869,231.466l-28.871,32.484L273.037,318h-20.222l-24.482-42.295l-10.35,10.544V318h-18.276
	v-86.534h18.276v34.665l32.03-34.665H269.869z M112.985,168.362l10.476-31.023l10.595,31.023H112.985z M82.653,203.269h18.758
	l6.942-19.999h30.453l6.942,19.999h19.489l-32.642-86.536h-17.297L82.653,203.269z M217.616,155.761v-24.121h12.544
	c3.168,0,5.788,0.305,7.856,0.908c2.07,0.606,3.698,1.456,4.874,2.547c1.176,1.089,2.011,2.347,2.496,3.757
	c0.488,1.416,0.731,2.891,0.731,4.423c0,1.862-0.203,3.554-0.609,5.092c-0.406,1.532-1.157,2.849-2.251,3.938
	c-1.097,1.092-2.581,1.941-4.448,2.547c-1.867,0.606-4.223,0.908-7.066,0.908H217.616z M199.71,203.269h17.906v-32.484h14.005h3.046
	l14.617,32.484h19.61l-17.661-36.721c4.79-2.589,8.2-5.78,10.234-9.574c2.025-3.802,3.044-8.485,3.044-14.062
	c0-2.984-0.488-6.036-1.464-9.151c-0.973-3.111-2.722-5.938-5.235-8.485c-2.519-2.544-5.991-4.606-10.417-6.18
	c-4.423-1.577-10.045-2.364-16.868-2.364H199.71V203.269z M122.846,42.6V16.908h12.911c3.168,0,5.785,0.282,7.856,0.849
	c2.068,0.567,3.712,1.371,4.934,2.423c1.219,1.047,2.07,2.347,2.558,3.879c0.485,1.532,0.731,3.312,0.731,5.334
	c0,1.932-0.226,3.735-0.669,5.393c-0.449,1.653-1.281,3.046-2.499,4.178c-1.219,1.134-2.863,2.02-4.931,2.666
	c-2.073,0.649-4.691,0.97-7.859,0.97H122.846z M104.94,88.536h17.906V57.629h13.641c6.496,0,11.878-0.767,16.138-2.305
	c4.265-1.532,7.675-3.613,10.234-6.242c2.556-2.621,4.341-5.673,5.36-9.151c1.013-3.47,1.523-7.106,1.523-10.908
	c0-3.549-0.511-6.965-1.523-10.237c-1.018-3.272-2.804-6.138-5.36-8.606c-2.558-2.463-6.011-4.44-10.355-5.938
	C148.16,2.75,142.657,2,136.003,2H104.94V88.536z"/>
<path id="Faraday" d="M59.268,116.731v15.517H20.29v20.361h36.662v15.509H20.29v35.15H2.138v-86.536H59.268z M328.704,168.362
	l10.476-31.023l10.595,31.023H328.704z M298.372,203.269h18.758l6.942-19.999h30.453l6.942,19.999h19.489l-32.642-86.536h-17.297
	L298.372,203.269z M433.581,187.876v-55.75h14.369c4.305,0,7.938,0.649,10.905,1.941c2.959,1.295,5.376,3.111,7.247,5.453
	c1.865,2.341,3.227,5.23,4.079,8.665c0.855,3.433,1.278,7.252,1.278,11.45c0,4.288-0.485,8.144-1.461,11.574
	c-0.973,3.439-2.496,6.409-4.567,8.911c-2.07,2.505-4.773,4.423-8.101,5.757c-3.329,1.331-7.348,2-12.056,2H433.581z
	 M415.429,203.269h29.477c7.063,0,13.399-0.931,19.001-2.79c5.605-1.856,10.352-4.643,14.251-8.361
	c3.898-3.715,6.883-8.282,8.956-13.698c2.068-5.41,3.106-11.712,3.106-18.902c0-14.143-3.718-24.809-11.148-31.999
	c-7.43-7.19-17.805-10.787-31.122-10.787h-32.521V203.269z M547.592,168.362l10.476-31.023l10.595,31.023H547.592z M517.262,203.269
	h18.755l6.942-19.999h30.453l6.942,19.999h19.489l-32.642-86.536h-17.294L517.262,203.269z M670.616,116.731l-19.365,35.023
	l-18.761-35.023H612.27L642.357,168v35.268h18.149V168l29.356-51.268H670.616z"/>
</svg>
